<svg width="87" height="97" viewBox="0 0 87 97" fill="none" xmlns="http://www.w3.org/2000/svg">
<path d="M80.002 42.0551C83.6363 37.3007 86.0721 31.5522 87 25.4146C87 25.3282 86.884 25.1553 86.768 25.0688C86.652 24.9824 86.6134 24.9824 86.5747 25.0688C81.6259 40.0669 73.5453 47.5444 62.1784 52.731C61.7145 50.6564 61.2892 48.5385 60.9799 46.4206C65.3488 45.0807 69.6017 43.1357 73.0427 40.3263C76.793 37.2575 79.9247 33.3243 82.2058 28.786C84.3323 24.6366 85.8788 20.0983 86.8067 15.4303C87.0387 14.3065 86.9227 13.9175 86.5747 13.615L86.4201 13.4853C86.2654 13.3556 86.1881 13.4853 86.1494 13.7014C85.9174 14.8252 85.6081 15.949 85.2215 17.0727C80.6979 30.6013 73.5066 38.7703 60.4773 42.1416C60.2839 39.7644 60.2066 37.3439 60.3226 34.9667C69.4857 32.8056 77.2183 25.674 81.4325 16.4244C83.3657 12.1022 84.7962 7.52065 85.7241 2.80944C85.8401 2.37722 85.6855 1.85855 85.3375 1.59922C85.2602 1.51278 85.1442 1.46955 85.0282 1.46955C84.7962 1.33989 84.5642 1.29666 84.3323 1.38311C80.118 2.42044 76.0197 4.01966 72.1534 6.18077C63.8796 10.8488 57.5775 19.4932 55.5671 29.6504C53.4406 29.7368 51.2755 29.6936 49.149 29.4775C52.1647 14.9981 59.4334 7.00199 71.5348 1.98822C72.5014 1.556 73.5066 1.21022 74.5505 0.950887C74.7052 0.907665 74.8598 0.777999 74.7439 0.648332L74.6279 0.475444C74.3572 0.0864445 74.0093 0 73.004 0.216111C68.8284 1.25344 64.8075 2.98233 61.0572 5.35955C56.9976 7.90965 53.4793 11.4106 50.7342 15.6032C48.2598 19.4067 46.52 24.118 45.3214 28.9156C43.4269 28.5698 41.5324 28.0944 39.6766 27.5757C44.3162 14.9549 51.0048 5.96466 64.3822 0.475444C64.4595 0.432222 64.4595 0.345777 64.3822 0.259333C64.3049 0.172889 64.1502 0 64.0729 0C58.5828 1.08055 53.4019 3.76033 49.1877 7.82321C43.9682 12.7505 39.6766 18.9745 36.3516 26.5384C34.6891 25.9765 33.0266 25.3714 31.4028 24.7663C26.4539 22.8213 13.6952 16.2948 8.74631 11.5403C7.19979 10.0708 6.4652 9.85465 5.61461 10.503C5.18932 10.9352 4.76403 11.3674 4.41606 11.8861C2.48292 14.9549 0.975066 18.4126 0.00849356 22.0433C-0.0688322 22.3458 0.395122 22.6484 0.859077 22.4323C3.14019 21.2653 13.0766 26.1062 15.9763 27.4028C17.8321 28.2241 19.7266 28.9588 21.621 29.6504C25.5647 31.1199 29.5469 32.4598 33.6065 33.5404C33.3746 34.2319 33.1426 34.9667 32.9106 35.7015C32.2147 37.949 31.6734 40.1966 31.1708 42.4441C21.621 40.8449 13.5405 38.1219 8.24369 35.6583C4.60938 33.9726 2.2896 33.5404 0.704425 34.4913C0.433785 34.6642 0.163145 35.1828 0.279133 35.9608C0.704425 38.5542 1.43902 41.061 2.48292 43.4383C3.37216 45.4265 3.87478 44.7781 4.72537 44.562C5.92391 44.2595 7.35444 44.6485 8.47567 44.9078C10.7181 45.3833 12.9606 46.0316 15.1643 46.5503C20.0745 47.7173 25.062 48.452 30.0882 48.7978C29.6629 51.8234 29.3923 54.7625 29.2376 57.5719C28.5804 57.5287 27.9618 57.5287 27.3432 57.4855C20.0359 57.01 11.762 54.7625 9.09427 53.9412C8.82363 53.8548 8.82363 54.7192 9.01695 54.9354C10.2155 56.4481 12.5353 59.1279 13.0766 59.7762C14.3524 61.4619 16.0536 62.6721 17.9094 63.3204C20.3065 64.1849 22.8196 64.3578 25.294 64.4442C26.4539 64.4874 27.7298 64.5307 29.0443 64.4874C29.0443 66.0002 29.0443 67.4698 29.1216 68.8097C29.199 71.5759 29.3536 74.4285 30.1269 77.0651C30.7068 79.1398 31.8281 81.0415 33.2972 82.4679C33.8772 83.073 36.3129 85.6663 37.6275 86.963C37.8208 87.1791 38.5941 87.1791 38.5167 86.8765C37.8208 83.851 35.7717 74.6446 35.3464 66.4757C35.3077 65.7409 35.269 64.9629 35.2304 64.2281C37.7435 64.0552 40.3726 63.7527 43.079 63.2772C43.3883 68.9393 44.0455 74.5582 45.0894 80.0906C45.5534 82.5975 46.1333 85.0612 46.5586 87.6113C46.7906 88.908 47.1772 90.464 46.8679 91.8038C46.6746 92.7547 46.0947 93.3166 47.8731 94.3107C49.9996 95.4777 52.2421 96.299 54.5618 96.7744C55.2964 96.9041 55.7604 96.6015 55.8764 96.2989C56.727 94.4836 56.3403 91.9335 54.8325 87.7842C52.6287 81.8627 50.1543 72.7861 48.7237 62.067C50.8115 61.5051 52.8607 60.8568 54.9098 60.0788C55.5284 59.8627 56.1083 59.6033 56.6883 59.344C57.6549 63.8823 58.8534 68.3774 60.1679 72.8293C60.7866 74.9472 61.4825 77.0651 62.2171 79.1398C63.3383 82.3382 67.6685 93.4463 66.6633 96.0396C66.47 96.5583 66.702 97.077 67.0113 96.9905C70.259 95.91 73.3133 94.2675 76.0584 92.0632C76.5224 91.6742 76.9476 91.242 77.2956 90.7233C77.8755 89.8156 77.6822 88.9512 76.3677 87.2223C72.1535 81.6899 66.2767 67.4698 64.5755 61.8941C63.9956 60.0356 63.4543 58.177 62.9903 56.2752C69.9883 52.7742 75.5558 47.9766 80.002 42.0551ZM70.8002 10.114C74.2799 7.08843 78.3395 4.92733 82.4764 3.41455L84.5256 2.67977C84.3323 3.41455 84.1389 4.1061 83.907 4.84088C82.5151 9.50887 80.6206 14.0472 77.9142 17.894C73.5453 24.1612 67.5139 27.5325 60.9799 28.8724C62.2171 21.6543 65.2328 14.9981 70.8002 10.114ZM54.8325 35.7879C54.6778 37.949 54.6778 40.1102 54.7165 42.3145C54.7165 42.617 54.7165 42.8764 54.7551 43.1789C52.474 43.4383 50.1156 43.6111 47.7572 43.6976C47.8345 41.061 47.9891 38.4245 48.2211 35.8744L49.1104 35.9176C51.0435 35.9608 52.938 35.9176 54.8325 35.7879ZM37.5888 34.4913C39.7153 34.9235 41.8417 35.3125 44.0069 35.5718C43.5816 38.4245 43.2723 41.1907 43.1176 43.6976C41.0685 43.6111 39.0193 43.4815 37.0089 43.2654C36.6609 43.2221 36.3516 43.1789 36.0036 43.1357C36.3516 40.2398 36.8929 37.3439 37.5888 34.4913ZM35.1144 57.8312C35.1144 55.0218 35.1917 52.0827 35.4237 49.1436C37.8981 49.23 40.4112 49.1868 42.8856 49.1436C42.847 51.9098 42.8083 54.7192 42.8856 57.4855C40.2566 57.7016 37.6275 57.8312 35.1144 57.8312ZM48.2211 56.8803C48.1825 56.5346 48.1438 56.232 48.1438 55.8862C47.9505 53.5955 47.8345 51.2615 47.7572 48.9275C50.0383 48.7546 52.474 48.4088 55.0258 47.9334C55.2578 50.3538 55.5671 52.731 55.9537 55.1082C53.4019 55.8862 50.8502 56.4481 48.2211 56.8803Z" fill="url(#paint0_linear_78_49)"/>
<defs>
<linearGradient id="paint0_linear_78_49" x1="23.0997" y1="71.3114" x2="92.3508" y2="9.36526" gradientUnits="userSpaceOnUse">
<stop stop-color="#1751A4"/>
<stop offset="0.52" stop-color="#307F75"/>
<stop offset="1" stop-color="#49AB48"/>
</linearGradient>
</defs>
</svg>
